<svg id='Content_Save_32' width='32' height='32' viewBox='0 0 32 32'
    xmlns='http://www.w3.org/2000/svg' xmlns:xlink='http://www.w3.org/1999/xlink'>
    <rect width='32' height='32' stroke='none' fill='#000000' opacity='0' />


    <g transform="matrix(2 0 0 2 16 16)">
        <g style="">
            <g transform="matrix(1 0 0 1 -0.13 -0.13)">
                <path
                    style="stroke: rgb(0,0,0); stroke-width: 0.75; stroke-dasharray: none; stroke-linecap: round; stroke-dashoffset: 0; stroke-linejoin: round; stroke-miterlimit: 4; fill: none; fill-rule: nonzero; opacity: 1;"
                    transform=" translate(-7, -7)"
                    d="M 13.5 12.5 C 13.5 13.052284749830793 13.052284749830793 13.5 12.5 13.5 L 1.5 13.5 C 0.9477152501692065 13.5 0.5 13.052284749830793 0.5 12.5 L 0.5 3.5 L 3.5 0.5 L 12.5 0.5 C 13.052284749830793 0.5 13.5 0.9477152501692063 13.5 1.4999999999999998 Z"
                    stroke-linecap="round" />
            </g>
            <g transform="matrix(1 0 0 1 -0.13 3.88)">
                <rect
                    style="stroke: rgb(0,0,0); stroke-width: 0.75; stroke-dasharray: none; stroke-linecap: round; stroke-dashoffset: 0; stroke-linejoin: round; stroke-miterlimit: 4; fill: none; fill-rule: nonzero; opacity: 1;"
                    x="-3.5" y="-2.5" rx="0" ry="0" width="7" height="5" />
            </g>
            <g transform="matrix(1 0 0 1 0.38 -4.63)">
                <rect
                    style="stroke: rgb(0,0,0); stroke-width: 0.75; stroke-dasharray: none; stroke-linecap: round; stroke-dashoffset: 0; stroke-linejoin: round; stroke-miterlimit: 4; fill: none; fill-rule: nonzero; opacity: 1;"
                    x="-3" y="-2" rx="0" ry="0" width="6" height="4" />
            </g>
        </g>
    </g>
</svg>